<svg width="20" height="22" viewBox="0 0 20 22" fill="none" xmlns="http://www.w3.org/2000/svg">
<path d="M2.11499 5.34C3.00599 4.34 4.48499 3.4625 5.50749 2.859C6.74899 2.126 8.67149 1 10.1065 1C11.5405 1 13.463 2.1265 14.705 2.859C15.947 3.5925 17.863 4.7305 18.58 6C19.297 7.2695 19.3045 9.534 19.3045 11C19.3045 12.466 19.2975 14.7305 18.58 16C17.8625 17.2695 15.947 18.408 14.7055 19.141C13.463 19.874 11.5405 21 10.1065 21C8.67249 21 6.74949 19.8735 5.50749 19.141C4.48499 18.5375 3.00599 17.6595 2.11499 16.66" stroke="#FD7E14" stroke-width="0.5" stroke-linecap="round" stroke-linejoin="round"/>
<path d="M5.499 13.4727C5.499 13.6819 5.45779 13.8891 5.37772 14.0824C5.29765 14.2757 5.18029 14.4513 5.03235 14.5993C4.8844 14.7472 4.70876 14.8646 4.51546 14.9446C4.32216 15.0247 4.11498 15.0659 3.90575 15.0659C3.69652 15.0659 3.48934 15.0247 3.29604 14.9446C3.10274 14.8646 2.9271 14.7472 2.77915 14.5993C2.6312 14.4513 2.51385 14.2757 2.43378 14.0824C2.35371 13.8891 2.3125 13.6819 2.3125 13.4727C2.3125 13.0501 2.48036 12.6449 2.77915 12.3461C3.07794 12.0473 3.48319 11.8794 3.90575 11.8794C4.32831 11.8794 4.73356 12.0473 5.03235 12.3461C5.33114 12.6449 5.499 13.0501 5.499 13.4727ZM14.952 13.4727C14.952 13.8952 14.7841 14.3005 14.4853 14.5993C14.1866 14.898 13.7813 15.0659 13.3588 15.0659C12.9362 15.0659 12.5309 14.898 12.2322 14.5993C11.9334 14.3005 11.7655 13.8952 11.7655 13.4727C11.7655 13.0501 11.9334 12.6444 12.2322 12.3456C12.5309 12.0468 12.9362 11.8789 13.3588 11.8789C13.7813 11.8789 14.1866 12.0468 14.4853 12.3456C14.7841 12.6444 14.952 13.0501 14.952 13.4727Z" stroke="#FD7E14" stroke-width="0.5" stroke-linecap="round" stroke-linejoin="round"/>
<path d="M2.34701 13.2145H1.81701C0.449509 13.2145 0.538009 11.377 1.00751 10.051C1.42101 8.88447 2.09751 7.70497 3.39151 7.28847C4.35551 6.97847 5.34151 6.91797 6.53801 6.91797H8.54201C9.46201 6.91797 10.0735 7.30297 10.7255 7.76297L13.2755 9.56397C14.4705 10.052 15.673 10.356 16.576 10.8805C17.296 11.298 17.1735 13.214 15.883 13.214H14.927M11.799 13.2145H5.47551" stroke="#FD7E14" stroke-width="0.5" stroke-linecap="round" stroke-linejoin="round"/>
</svg>
